<?xml version="1.0" standalone="no"?>
<!DOCTYPE svg PUBLIC "-//W3C//DTD SVG 20010904//EN"
 "http://www.w3.org/TR/2001/REC-SVG-20010904/DTD/svg10.dtd">
<svg version="1.0" xmlns="http://www.w3.org/2000/svg"
 width="931.000000pt" height="1139.000000pt" viewBox="0 0 931.000000 1139.000000"
 preserveAspectRatio="xMidYMid meet">

<g transform="translate(0.000000,1139.000000) scale(0.100000,-0.100000)"
fill="#000000" stroke="none">
<path d="M5952 7137 c-40 -4 -89 -17 -108 -27 -37 -21 -89 -26 -114 -11 -10 7
-19 2 -31 -19 -10 -15 -27 -31 -38 -35 -23 -7 -55 -60 -46 -74 10 -17 -7 -40
-43 -63 -46 -28 -81 -67 -82 -90 0 -9 -5 -20 -10 -23 -17 -10 -51 -83 -41 -89
17 -11 21 -85 7 -127 -10 -28 -12 -48 -6 -59 5 -10 7 -20 4 -23 -3 -3 15 -25
40 -50 25 -24 46 -51 46 -59 0 -9 29 -37 65 -63 55 -39 68 -44 85 -35 11 6 46
10 78 9 31 0 77 6 101 15 24 9 58 16 77 16 31 0 64 -21 64 -41 0 -5 17 -7 39
-3 34 5 41 3 55 -18 13 -21 14 -34 5 -82 -10 -57 -10 -57 23 -94 34 -37 55
-87 77 -176 10 -41 9 -51 -4 -66 -8 -9 -22 -40 -30 -68 -16 -51 -16 -52 16
-114 18 -35 38 -94 46 -133 7 -38 21 -82 32 -96 26 -35 64 -126 57 -137 -3 -5
0 -17 8 -27 12 -16 21 -17 105 -7 79 10 98 16 131 42 22 17 52 50 68 73 l28
43 -75 51 c-158 108 -183 152 -122 214 37 37 52 36 124 -2 32 -17 61 -28 64
-25 3 2 -9 30 -27 60 l-31 56 -72 0 c-91 0 -154 28 -218 97 -60 64 -82 130
-77 226 6 113 61 200 163 258 57 32 175 38 246 13 112 -40 198 -154 199 -264
1 -46 3 -52 13 -36 18 28 128 138 167 167 36 27 107 143 117 190 l5 25 -86
-14 c-93 -15 -116 -9 -116 29 0 10 -22 37 -50 60 -27 23 -50 50 -50 59 0 9
-11 27 -25 40 -17 16 -25 34 -25 55 0 18 -9 44 -20 58 -11 14 -20 29 -20 34 0
4 -18 44 -40 88 -45 91 -50 113 -15 70 20 -24 25 -26 30 -13 14 36 1 52 -48
61 -29 4 -55 4 -67 -3 -12 -7 -27 -7 -45 0 -14 5 -35 10 -46 10 -10 0 -39 9
-63 21 -36 16 -49 18 -66 9 -11 -6 -19 -18 -18 -27 5 -24 -28 -40 -52 -25 -11
6 -29 12 -39 12 -11 0 -26 9 -34 21 -9 13 -30 23 -54 26 -22 3 -50 13 -63 23
-20 15 -22 21 -12 33 8 9 10 26 6 41 -7 28 -17 29 -162 13z"/>
<path d="M6415 6316 c-126 -58 -181 -213 -121 -341 39 -85 129 -144 218 -145
38 0 46 3 42 15 -4 9 -19 15 -40 15 -85 0 -175 71 -200 157 -72 246 259 400
403 188 29 -43 43 -112 33 -167 -10 -50 -4 -61 16 -34 19 26 18 133 -1 179
-55 133 -219 195 -350 133z"/>
<path d="M6445 6227 c-124 -70 -109 -245 28 -302 33 -14 37 -14 37 0 0 9 -9
15 -21 15 -33 0 -96 69 -105 114 -16 86 58 175 146 176 36 0 95 -30 117 -59
25 -32 34 -89 23 -132 -14 -51 -7 -61 14 -20 22 42 20 91 -7 142 -45 84 -148
114 -232 66z"/>
<path d="M1983 6230 c-113 -16 -173 -74 -173 -165 0 -38 6 -60 21 -79 21 -26
87 -66 110 -66 7 0 43 -9 80 -20 55 -17 69 -25 69 -41 0 -43 -91 -47 -192 -9
l-48 18 -25 -55 c-14 -30 -23 -59 -20 -63 10 -16 101 -41 173 -47 104 -9 190
16 236 67 41 45 53 94 36 144 -17 53 -62 82 -169 108 -99 24 -126 43 -102 72
17 20 91 21 156 1 27 -8 50 -13 51 -12 3 3 44 107 44 112 0 7 -102 33 -150 38
-25 2 -68 1 -97 -3z"/>
<path d="M2521 6229 c-131 -22 -223 -125 -225 -254 -2 -168 135 -287 313 -272
82 7 129 26 183 75 56 50 80 107 80 192 0 177 -154 291 -351 259z m144 -162
c44 -44 54 -100 27 -160 -43 -98 -170 -100 -216 -3 -20 42 -20 75 -1 124 19
47 57 71 114 72 35 0 49 -6 76 -33z"/>
<path d="M3517 6222 c-14 -3 -17 -16 -17 -62 l0 -59 78 -3 77 -3 3 -192 2
-193 80 0 80 0 2 193 3 192 75 5 75 5 3 57 3 57 -224 3 c-123 2 -231 2 -240 0z"/>
<path d="M4040 5968 l0 -258 80 0 80 0 0 65 0 65 29 0 c25 0 36 -10 73 -62
l44 -63 87 -3 c48 -1 87 -1 87 2 0 2 -22 37 -49 77 l-50 73 39 39 c58 57 73
126 44 195 -41 98 -99 121 -312 125 l-152 2 0 -257z m273 121 c41 -22 49 -62
20 -98 -14 -16 -31 -22 -73 -24 l-55 -2 -3 54 c-2 29 -1 60 2 67 7 17 78 19
109 3z"/>
<path d="M4765 6215 c-7 -5 -29 -50 -50 -100 -21 -49 -69 -159 -107 -244 -37
-84 -68 -155 -68 -157 0 -2 38 -4 84 -4 l83 0 17 45 18 45 103 0 103 0 18 -45
17 -45 83 0 c46 0 84 2 84 5 0 9 -67 166 -143 335 l-73 165 -79 5 c-45 3 -83
1 -90 -5z m110 -217 c10 -29 20 -59 23 -65 3 -10 -11 -13 -52 -13 -31 0 -56 1
-56 3 0 4 42 112 46 119 11 17 21 6 39 -44z"/>
<path d="M5667 6223 c-4 -3 -7 -120 -7 -260 l0 -253 80 0 80 0 0 260 0 260
-73 0 c-41 0 -77 -3 -80 -7z"/>
<path d="M2952 6043 c4 -196 11 -223 71 -280 86 -82 276 -82 358 0 61 60 69
92 69 285 l0 172 -80 0 -80 0 0 -154 c0 -85 -4 -166 -10 -180 -14 -38 -53 -59
-95 -52 -57 11 -65 39 -65 226 l0 160 -86 0 -86 0 4 -177z"/>
<path d="M5198 5975 c-2 -135 -1 -250 0 -255 2 -6 80 -10 203 -10 l199 0 0 65
0 65 -120 0 -120 0 0 190 0 190 -80 0 -79 0 -3 -245z"/>
<path d="M6495 6116 c-16 -11 -15 -16 9 -64 15 -29 32 -52 38 -52 6 0 9 -3 5
-6 -6 -6 30 -82 53 -114 9 -12 10 -10 4 10 -4 14 -10 27 -14 30 -27 19 -33 80
-8 80 6 0 4 -8 -3 -17 -12 -15 -12 -16 4 -10 9 3 17 2 17 -3 0 -6 -5 -10 -10
-10 -6 0 -3 -12 7 -27 24 -39 23 -39 31 -26 4 6 8 -6 8 -29 1 -26 -2 -35 -7
-27 -7 11 -9 10 -9 -3 0 -22 18 -32 33 -20 8 7 17 5 26 -6 13 -14 12 -15 -7
-10 -12 4 -25 2 -28 -3 -3 -5 2 -9 10 -9 18 0 22 -16 5 -22 -6 -2 0 -15 15
-28 14 -14 26 -29 26 -35 0 -5 -5 -3 -10 5 -23 36 -7 -5 25 -63 40 -74 42 -83
16 -92 -12 -4 -18 -12 -14 -21 3 -7 1 -14 -4 -14 -6 0 -20 -9 -33 -20 -25 -22
-20 -26 10 -10 16 8 18 8 14 -5 -4 -8 -11 -15 -18 -15 -6 0 -3 -5 7 -11 10 -6
21 -9 24 -6 2 3 21 -6 40 -19 38 -26 53 -30 53 -14 0 13 32 1 48 -18 17 -22
149 -24 162 -2 5 8 12 11 16 8 8 -9 64 19 64 32 0 5 9 12 20 15 11 3 20 11 20
17 0 6 -6 6 -15 -2 -9 -7 -15 -8 -15 -2 0 11 30 26 45 23 5 -2 7 1 3 5 -4 4 0
13 10 21 12 10 14 16 5 19 -18 8 -16 27 2 20 8 -3 15 -1 15 4 0 10 -11 13 -40
12 -8 -1 -3 4 13 11 27 11 36 40 17 52 -6 4 -8 10 -5 14 2 5 -2 23 -11 40 -11
22 -21 30 -33 26 -12 -3 -17 1 -18 16 -2 18 0 19 14 7 12 -9 9 0 -7 30 -19 33
-28 41 -44 37 -20 -6 -20 -5 -3 8 21 17 23 31 3 24 -10 -4 -13 -1 -10 7 3 8
-13 50 -35 95 -40 78 -60 105 -46 60 5 -15 4 -19 -5 -14 -7 4 -9 17 -6 31 5
18 2 24 -9 24 -9 0 -13 -4 -10 -10 3 -6 -1 -7 -9 -4 -9 3 -16 1 -16 -5 0 -6 4
-11 9 -11 5 0 3 -13 -5 -30 -16 -32 -32 -38 -52 -18 -9 9 -12 8 -12 -5 0 -9 5
-17 10 -17 6 0 10 -5 10 -11 0 -8 -5 -8 -15 1 -8 7 -15 21 -15 32 0 13 -6 18
-17 16 -12 -3 -17 -12 -15 -27 5 -44 -38 -68 -62 -35 -17 22 -45 8 -43 -23 1
-16 -6 -30 -19 -39 -21 -15 -24 -12 -81 93 -32 59 -65 120 -72 135 -17 33 -34
40 -56 24z m25 -26 c0 -24 -15 -27 -24 -4 -3 8 -2 12 4 9 6 -3 10 -1 10 4 0 6
2 11 5 11 3 0 5 -9 5 -20z m34 -28 c2 -4 -2 -15 -9 -25 -12 -17 -13 -16 -11 7
1 25 10 34 20 18z m16 -42 c0 -5 -4 -10 -10 -10 -5 0 -10 5 -10 10 0 6 5 10
10 10 6 0 10 -4 10 -10z m280 -56 c0 -8 -4 -12 -10 -9 -5 3 -10 10 -10 16 0 5
5 9 10 9 6 0 10 -7 10 -16z m127 -21 c-3 -10 -5 -4 -5 12 0 17 2 24 5 18 2 -7
2 -21 0 -30z m36 7 c3 -11 1 -20 -4 -20 -5 0 -9 9 -9 20 0 11 2 20 4 20 2 0 6
-9 9 -20z m-148 -29 c3 -5 1 -12 -5 -16 -5 -3 -10 1 -10 9 0 18 6 21 15 7z
m-107 -19 c6 -18 -15 -14 -22 4 -4 10 -1 14 6 12 6 -2 14 -10 16 -16z m262 4
c0 -11 -19 -15 -25 -6 -3 5 1 10 9 10 9 0 16 -2 16 -4z m-360 -37 c0 -6 -4 -7
-10 -4 -5 3 -10 11 -10 16 0 6 5 7 10 4 6 -3 10 -11 10 -16z m390 0 c0 -6 -4
-7 -10 -4 -5 3 -10 11 -10 16 0 6 5 7 10 4 6 -3 10 -11 10 -16z m-275 -47
c-22 -5 -29 3 -21 25 7 17 8 17 22 -2 13 -18 13 -20 -1 -23z m273 -18 c-3 -14
-5 -12 -10 9 -3 19 -2 25 4 19 6 -6 8 -18 6 -28z m-321 -42 c-3 -12 -5 -11 -6
6 -1 24 -16 30 -24 10 -2 -7 -8 -10 -12 -5 -5 4 0 14 11 21 16 13 20 12 27 0
5 -8 6 -22 4 -32z m378 18 c3 -5 2 -10 -4 -10 -5 0 -13 5 -16 10 -3 6 -2 10 4
10 5 0 13 -4 16 -10z m-47 -19 c-7 -11 -16 -18 -20 -15 -4 3 -2 11 5 19 18 21
29 18 15 -4z m37 -11 c3 -5 -1 -10 -9 -10 -9 0 -16 5 -16 10 0 6 4 10 9 10 6
0 13 -4 16 -10z m-365 -30 c0 -5 -2 -10 -4 -10 -3 0 -8 5 -11 10 -3 6 -1 10 4
10 6 0 11 -4 11 -10z m416 -27 c-10 -10 -19 5 -10 18 6 11 8 11 12 0 2 -7 1
-15 -2 -18z m-381 -55 c4 -18 9 -42 11 -53 3 -11 -4 -4 -15 15 -22 37 -27 70
-12 70 5 0 12 -15 16 -32z m385 -1 c0 -18 -2 -19 -10 -7 -13 20 -13 43 0 35 6
-3 10 -16 10 -28z m-350 -27 c0 -5 -4 -10 -10 -10 -5 0 -10 5 -10 10 0 6 5 10
10 10 6 0 10 -4 10 -10z m10 -40 c0 -5 -5 -10 -11 -10 -5 0 -7 5 -4 10 3 6 8
10 11 10 2 0 4 -4 4 -10z m-50 -14 c0 -2 -8 -10 -17 -17 -16 -13 -17 -12 -4 4
13 16 21 21 21 13z m377 -28 c-3 -8 -6 -5 -6 6 -1 11 2 17 5 13 3 -3 4 -12 1
-19z m-329 -23 c0 -14 -4 -25 -9 -25 -5 0 -9 4 -9 8 0 5 -10 14 -22 21 -22 11
-22 11 5 6 15 -3 27 -1 27 5 0 5 2 10 4 10 2 0 4 -11 4 -25z m297 5 c3 -5 1
-10 -4 -10 -6 0 -11 5 -11 10 0 6 2 10 4 10 3 0 8 -4 11 -10z m-330 -40 c22
-24 13 -39 -10 -16 -17 16 -28 20 -55 17 -13 -2 -13 -1 0 8 23 16 45 13 65 -9z
m325 0 c0 -5 -7 -10 -15 -10 -8 0 -15 5 -15 10 0 6 7 10 15 10 8 0 15 -4 15
-10z m-50 -10 c0 -5 -4 -10 -10 -10 -5 0 -10 5 -10 10 0 6 5 10 10 10 6 0 10
-4 10 -10z m10 -30 c-8 -5 -18 -6 -22 -3 -5 2 -15 -1 -23 -7 -16 -13 -55 -5
-55 12 0 6 6 6 15 -2 12 -10 18 -10 30 0 8 7 21 10 30 7 8 -4 17 -2 21 4 3 6
9 8 12 4 4 -3 0 -10 -8 -15z"/>
<path d="M6490 5645 c-11 -13 -8 -19 14 -40 15 -14 31 -25 36 -25 5 0 13 -6
17 -13 4 -6 25 -25 46 -41 35 -26 40 -27 56 -12 10 9 23 16 30 16 7 0 10 4 6
10 -3 5 -13 6 -22 3 -11 -4 -14 -3 -9 5 4 8 -2 16 -16 21 -23 10 -23 10 -1 10
12 1 23 -4 25 -10 2 -7 11 -10 19 -7 23 8 -50 40 -76 34 -13 -3 -27 -2 -30 4
-3 5 -11 10 -17 10 -6 0 -3 -11 6 -25 16 -25 16 -25 -3 -13 -11 6 -17 16 -15
20 3 4 -2 8 -10 8 -8 0 -18 4 -21 10 -4 6 1 7 10 3 10 -3 20 0 25 6 5 10 11 9
23 -3 18 -18 27 -20 27 -7 0 12 -39 26 -65 22 -17 -1 -17 0 -5 8 11 8 11 11 2
11 -7 0 -15 -7 -18 -15 -4 -8 -12 -15 -20 -15 -19 0 -18 10 4 26 9 7 12 14 6
14 -6 0 -17 -7 -24 -15z m135 -96 c11 -17 -1 -21 -15 -4 -8 9 -8 15 -2 15 6 0
14 -5 17 -11z"/>
<path d="M5545 5583 c-27 -8 -54 -19 -60 -25 -7 -7 -4 -8 10 -5 70 20 78 20
72 3 -4 -10 -7 -22 -7 -27 0 -6 -4 -8 -10 -4 -5 3 -7 12 -4 19 4 10 -2 12 -21
9 -32 -7 -43 -23 -15 -23 12 0 18 -4 15 -10 -4 -6 -17 -4 -36 6 -17 8 -32 14
-33 12 -24 -36 -34 -59 -39 -85 -5 -26 -2 -35 13 -43 25 -13 30 -13 30 5 0 9
-6 12 -15 9 -8 -4 -15 -2 -15 4 0 5 8 13 17 16 16 7 33 -8 33 -31 0 -6 6 -13
13 -16 6 -2 8 -8 4 -13 -4 -5 -12 -2 -18 6 -8 13 -10 13 -18 1 -8 -12 -12 -12
-25 -2 -28 24 -17 -5 17 -42 17 -19 43 -38 57 -41 20 -5 19 -3 -6 8 -35 17
-59 42 -46 50 12 7 52 -4 52 -16 0 -5 -10 -4 -21 3 -14 7 -19 7 -15 0 17 -27
185 -95 210 -85 7 3 21 -6 32 -18 l19 -23 -22 18 c-21 19 -22 18 -16 -3 3 -12
16 -26 29 -32 13 -6 21 -15 18 -20 -3 -4 -12 -1 -20 7 -9 8 -20 12 -25 9 -6
-3 -3 -11 6 -18 15 -11 15 -13 1 -25 -8 -7 -21 -11 -28 -8 -8 3 -6 6 5 6 16 1
17 3 3 16 -8 8 -27 14 -43 14 l-28 -1 30 -7 c26 -6 27 -8 11 -14 -11 -4 -27
-2 -40 6 -12 8 -37 14 -56 15 -19 0 -36 6 -38 11 -2 6 -11 11 -21 11 -9 0 -22
5 -29 12 -14 14 -13 15 -39 -47 -20 -45 -20 -50 -5 -62 28 -20 34 -15 15 14
-13 19 -14 28 -5 31 6 2 12 10 12 18 0 8 5 14 10 14 13 0 13 -6 -2 -31 -11
-17 -10 -22 5 -33 9 -7 17 -18 17 -23 0 -11 60 -27 68 -18 3 2 -6 9 -19 14
-22 8 -22 10 -6 16 14 6 26 0 43 -19 19 -20 34 -26 67 -26 27 0 37 3 29 9 -11
7 -10 10 3 15 23 8 27 8 20 -4 -7 -11 9 -13 42 -4 13 4 21 9 19 13 -2 3 3 13
12 21 14 13 15 12 9 -4 -7 -17 -6 -18 15 -4 13 9 24 24 26 34 3 16 1 17 -7 4
-16 -23 -13 3 5 45 13 32 14 45 3 82 -6 24 -9 46 -7 49 3 3 9 -12 13 -33 6
-33 9 -35 16 -18 8 16 8 15 4 -7 -6 -30 8 -77 18 -61 11 17 -8 98 -22 95 -6
-1 -11 5 -9 15 2 11 -5 19 -17 21 -11 3 -23 9 -27 16 -4 6 -15 12 -25 13 -10
1 -38 7 -63 13 -25 6 -54 12 -65 13 -11 0 -23 5 -27 11 -4 6 -10 7 -14 3 -4
-3 4 -16 17 -27 l24 -20 -28 12 c-22 9 -27 16 -23 34 4 13 2 25 -3 28 -4 3 -6
17 -4 30 4 18 10 23 22 19 9 -4 13 -3 9 2 -4 4 0 14 8 23 13 12 17 13 24 3 4
-8 16 -11 29 -6 12 4 21 2 21 -4 0 -15 33 -14 48 1 9 9 12 9 12 1 0 -7 -5 -15
-12 -19 -16 -10 27 -25 49 -17 12 5 14 3 8 -7 -5 -9 -4 -11 3 -6 17 10 15 23
-5 30 -9 4 -20 1 -25 -6 -4 -7 -8 -8 -8 -3 0 22 15 34 30 25 23 -15 27 -12 39
22 13 36 8 44 -34 52 l-30 6 30 -14 c26 -13 27 -15 8 -16 -12 0 -29 10 -37 21
-9 13 -21 19 -30 16 -9 -4 -16 -3 -16 2 0 13 -113 10 -165 -6z m233 -49 c12
-4 22 -13 22 -22 0 -14 -2 -14 -17 0 -10 9 -24 13 -30 11 -7 -3 -13 0 -13 6 0
12 6 13 38 5z m-298 -29 c10 -12 10 -19 2 -27 -9 -9 -12 -6 -12 13 -1 24 -1
24 -16 -4 -19 -36 -28 -30 -11 6 14 31 20 33 37 12z m180 -135 c0 -5 -5 -10
-11 -10 -5 0 -7 5 -4 10 3 6 8 10 11 10 2 0 4 -4 4 -10z m-89 -23 c-10 -9 -11
-8 -5 6 3 10 9 15 12 12 3 -3 0 -11 -7 -18z m9 -27 c0 -5 -4 -10 -10 -10 -5 0
-10 5 -10 10 0 6 5 10 10 10 6 0 10 -4 10 -10z m90 -40 c0 -5 -2 -10 -4 -10
-3 0 -8 5 -11 10 -3 6 -1 10 4 10 6 0 11 -4 11 -10z m60 -10 c0 -5 -2 -10 -4
-10 -3 0 -8 5 -11 10 -3 6 -1 10 4 10 6 0 11 -4 11 -10z m-220 -80 c0 -5 -4
-10 -10 -10 -5 0 -10 5 -10 10 0 6 5 10 10 10 6 0 10 -4 10 -10z m-26 -45 c3
-8 1 -15 -4 -15 -6 0 -10 7 -10 15 0 8 2 15 4 15 2 0 6 -7 10 -15z m246 -5 c0
-5 -4 -10 -10 -10 -5 0 -10 5 -10 10 0 6 5 10 10 10 6 0 10 -4 10 -10z m-80
-15 c0 -8 -5 -15 -11 -15 -5 0 -8 4 -5 9 4 5 0 12 -6 14 -8 3 -6 6 5 6 9 1 17
-6 17 -14z m56 -10 c19 -19 14 -19 -22 0 -21 11 -24 15 -11 15 10 0 25 -7 33
-15z m-73 -22 c-7 -2 -19 -2 -25 0 -7 3 -2 5 12 5 14 0 19 -2 13 -5z"/>
<path d="M3248 5352 c-2 -131 -1 -247 0 -256 4 -17 17 -18 162 -15 87 2 162 7
166 11 4 4 1 14 -6 23 -16 20 -2 20 20 0 13 -12 23 -13 44 -6 14 6 26 13 26
16 0 4 -6 3 -12 -1 -9 -5 -9 -2 1 9 15 19 36 24 25 6 -5 -8 -1 -8 14 0 35 18
89 112 77 132 -4 5 -1 9 4 9 7 0 10 23 9 58 -1 37 -3 45 -5 22 -5 -43 -22 -90
-34 -90 -5 0 -5 10 0 23 9 22 -7 108 -22 123 -10 10 -9 24 3 24 5 0 12 -17 16
-37 4 -21 11 -45 16 -53 7 -11 8 -9 4 9 -3 13 -1 32 5 42 10 19 -16 89 -34 89
-11 0 -37 26 -32 32 2 2 -5 10 -17 17 -11 7 -17 8 -13 2 3 -6 1 -11 -5 -11 -6
0 -9 -3 -7 -7 3 -5 -14 -8 -37 -9 l-41 -1 35 11 c59 19 46 38 -35 53 -11 3
-88 7 -172 9 l-152 5 -3 -239z m234 202 c25 -16 -5 -21 -107 -20 -90 1 -115 4
-115 15 0 9 10 12 35 9 19 -2 35 0 35 5 0 9 136 1 152 -9z m-32 -65 c0 -6 -4
-7 -10 -4 -5 3 -10 11 -10 16 0 6 5 7 10 4 6 -3 10 -11 10 -16z m42 -2 c-4
-16 -1 -19 11 -14 9 3 19 2 23 -4 3 -6 13 -8 21 -5 8 3 24 -1 36 -9 15 -10 17
-15 7 -15 -9 0 -3 -12 18 -31 30 -28 45 -58 21 -43 -8 5 -8 1 0 -14 14 -26 14
-35 0 -26 -8 4 -9 0 -4 -15 4 -12 2 -21 -4 -21 -6 0 -11 -5 -11 -12 0 -7 -12
-25 -27 -40 -25 -26 -21 -42 5 -16 9 9 12 9 12 -1 0 -7 5 -9 11 -5 8 5 8 9 -1
14 -10 6 -9 12 2 29 14 20 15 19 13 -17 l-1 -37 -49 -2 c-28 -1 -71 -5 -96 -8
-77 -12 -80 -7 -81 134 0 70 3 126 9 132 6 6 24 11 42 11 25 1 30 5 26 18 -3
10 0 17 8 17 9 0 12 -7 9 -20z m43 13 c3 -5 1 -10 -4 -10 -6 0 -11 5 -11 10 0
6 2 10 4 10 3 0 8 -4 11 -10z m105 -20 c0 -5 -5 -10 -11 -10 -5 0 -7 5 -4 10
3 6 8 10 11 10 2 0 4 -4 4 -10z m100 -20 c0 -5 -2 -10 -4 -10 -3 0 -8 5 -11
10 -3 6 -1 10 4 10 6 0 11 -4 11 -10z m-105 -40 c3 -5 1 -10 -4 -10 -6 0 -11
5 -11 10 0 6 2 10 4 10 3 0 8 -4 11 -10z m105 -180 c0 -5 -4 -10 -10 -10 -5 0
-10 5 -10 10 0 6 5 10 10 10 6 0 10 -4 10 -10z m-70 -73 c0 -3 -6 -7 -14 -10
-9 -4 -13 2 -13 18 0 20 2 22 13 10 8 -7 14 -16 14 -18z m40 8 c-7 -9 -15 -13
-19 -10 -3 3 1 10 9 15 21 14 24 12 10 -5z m-150 -29 c0 -2 -16 -6 -35 -8 -19
-2 -35 0 -35 4 0 4 16 8 35 8 19 0 35 -2 35 -4z m60 -26 c0 -5 -5 -10 -11 -10
-5 0 -7 5 -4 10 3 6 8 10 11 10 2 0 4 -4 4 -10z m-242 -7 c-21 -2 -57 -2 -80
0 -24 2 -7 4 37 4 44 0 63 -2 43 -4z m152 -2 c0 -5 -7 -12 -16 -15 -8 -3 -13
-2 -9 3 3 5 -1 12 -7 14 -7 3 -3 6 10 6 12 1 22 -3 22 -8z"/>
<path d="M3870 5583 c-1 -5 -2 -119 -3 -255 l-2 -248 210 0 c162 0 206 3 197
12 -15 15 -16 32 -2 23 6 -4 9 12 9 42 l-2 48 -7 -40 c-4 -22 -8 -31 -10 -20
-1 11 -2 24 -1 29 1 4 -16 6 -39 4 -22 -2 -40 0 -40 4 0 4 19 9 43 11 23 2 -3
4 -58 5 -64 0 -93 -3 -80 -8 16 -7 11 -9 -20 -9 -25 0 -35 2 -27 8 10 6 9 10
-7 14 -14 3 -21 13 -21 30 0 55 4 57 119 57 l106 0 2 53 c1 28 -1 45 -5 37 -9
-20 -32 -24 -32 -5 0 11 -12 15 -45 15 -28 0 -45 -4 -45 -12 0 -9 -3 -9 -12 0
-17 17 -26 15 -31 -5 -4 -17 -5 -17 -6 0 0 9 -8 17 -17 17 -41 0 -62 79 -21
82 12 1 29 2 37 4 8 1 59 2 113 3 61 1 97 5 97 12 0 5 -4 8 -9 5 -14 -9 -42 5
-35 16 4 5 15 8 25 5 16 -4 19 1 19 34 l0 39 -200 0 c-110 0 -200 -3 -200 -7z
m238 -20 c-16 -2 -40 -2 -55 0 -16 2 -3 4 27 4 30 0 43 -2 28 -4z m137 -12 c3
-5 -3 -12 -13 -16 -22 -6 -52 3 -52 16 0 12 57 12 65 0z m-160 -22 c133 -14
158 -27 40 -21 -61 3 -85 1 -85 -7 0 -7 -5 -9 -10 -6 -6 4 -8 11 -4 17 4 6
-10 9 -37 8 -24 -1 -46 -1 -49 0 -3 1 -16 4 -29 6 -14 2 -27 7 -30 9 -8 9 90
5 204 -6z m-45 -159 c0 -5 -4 -10 -10 -10 -5 0 -10 5 -10 10 0 6 5 10 10 10 6
0 10 -4 10 -10z m23 -47 c-7 -2 -19 -2 -25 0 -7 3 -2 5 12 5 14 0 19 -2 13 -5z
m25 -210 c-10 -2 -28 -2 -40 0 -13 2 -5 4 17 4 22 1 32 -1 23 -4z"/>
<path d="M4521 5563 c-6 -13 -8 -29 -5 -34 3 -6 -4 -21 -17 -35 -12 -13 -17
-24 -11 -24 7 0 12 -5 12 -11 0 -6 -7 -9 -14 -6 -10 4 -13 1 -9 -9 3 -7 0 -14
-6 -14 -6 0 -11 -11 -11 -25 0 -14 -4 -25 -8 -25 -11 0 -34 -51 -27 -58 3 -4
8 4 12 16 5 22 6 22 19 -4 15 -28 10 -49 -5 -25 -6 9 -11 10 -15 2 -4 -6 -11
-9 -16 -6 -4 3 -11 -2 -14 -11 -3 -8 -2 -12 4 -9 15 9 11 -15 -10 -60 -17 -35
-19 -36 -13 -10 3 17 10 36 16 43 6 8 6 12 0 12 -6 0 -19 -21 -29 -47 -26 -65
-27 -70 -14 -53 9 13 10 12 7 -5 -2 -11 -9 -19 -16 -17 -7 1 -10 -2 -6 -8 3
-5 1 -10 -5 -10 -7 0 -9 -8 -5 -21 5 -14 3 -19 -3 -15 -6 3 -13 2 -17 -4 -4
-6 22 -10 75 -10 79 0 81 1 91 28 6 15 12 42 14 60 1 18 6 36 10 40 4 4 4 -3
1 -15 -4 -13 -3 -23 2 -23 13 0 24 29 16 43 -3 7 2 3 11 -8 14 -17 17 -18 25
-5 5 8 10 10 10 5 0 -6 17 -12 37 -13 20 -2 43 -8 50 -14 16 -13 43 -3 43 17
0 8 8 15 18 15 13 0 14 -2 3 -9 -11 -7 -9 -19 13 -65 l27 -56 80 0 c44 0 78 3
76 8 -6 9 -69 147 -88 190 -8 17 -18 32 -22 32 -5 0 -5 5 -2 11 4 5 -1 19 -12
31 -10 11 -17 23 -16 27 0 3 -2 5 -7 4 -4 -1 -5 10 -2 24 3 18 1 24 -7 19 -6
-4 -11 -15 -12 -24 0 -11 -3 -12 -6 -4 -2 6 -10 12 -17 12 -14 0 -38 45 -29
54 3 3 13 0 21 -7 13 -10 14 -8 8 13 -6 21 -5 22 4 8 7 -12 8 -24 1 -36 -7
-14 -6 -19 4 -19 27 0 24 29 -10 98 l-36 70 -78 -2 c-73 -1 -80 -3 -90 -26z
m30 -5 c0 -10 2 -10 6 0 5 14 71 16 92 3 21 -13 -30 -25 -65 -17 -23 6 -26 4
-22 -11 4 -13 -1 -19 -13 -20 -20 -2 -31 20 -23 42 7 18 24 20 25 3z m159 -41
c0 -4 -7 -2 -15 7 -8 8 -15 21 -15 28 1 14 30 -20 30 -35z m-54 -130 c14 5 15
3 4 -17 -7 -12 -8 -20 -2 -16 5 3 12 -1 16 -9 3 -8 1 -15 -5 -15 -6 0 -7 -5
-4 -10 4 -6 10 -8 14 -6 3 3 7 -3 7 -13 0 -15 -10 -18 -69 -20 -66 -2 -68 -1
-65 21 2 13 -1 24 -7 26 -5 1 -11 -7 -11 -18 -1 -11 -5 -24 -8 -28 -4 -4 -6 9
-4 28 2 29 7 35 27 35 18 0 26 9 36 39 19 53 38 64 48 26 5 -21 12 -28 23 -23z
m-175 0 c-15 -15 -14 -27 3 -21 8 3 17 0 21 -6 11 -17 -5 -26 -16 -10 -9 12
-9 11 -4 -5 16 -42 17 -65 5 -65 -7 0 -10 7 -7 14 3 8 -1 28 -9 44 -12 25 -12
35 -2 57 7 15 14 22 16 15 2 -6 -1 -17 -7 -23z m237 -72 c0 -14 -4 -28 -9 -31
-10 -6 -12 39 -2 49 10 10 11 9 11 -18z m106 -60 c3 -8 1 -15 -3 -15 -5 0 -11
7 -15 15 -3 8 -1 15 3 15 5 0 11 -7 15 -15z m-4 -40 c7 -9 8 -15 2 -15 -5 0
-12 7 -16 15 -3 8 -4 15 -2 15 2 0 9 -7 16 -15z m-134 -33 c-4 -3 -14 2 -24
12 -16 18 -16 18 6 6 13 -6 21 -14 18 -18z m79 18 c-3 -5 -10 -10 -16 -10 -5
0 -9 5 -9 10 0 6 7 10 16 10 8 0 12 -4 9 -10z m25 -25 c-7 -9 -15 -13 -18 -10
-3 2 1 11 8 20 7 9 15 13 18 10 3 -2 -1 -11 -8 -20z m-24 -22 c18 -24 17 -33
-2 -33 -8 0 -12 5 -9 11 4 6 -1 17 -11 24 -14 10 -15 14 -5 15 8 0 20 -8 27
-17z m-353 -3 c3 6 4 5 3 -2 -1 -7 -12 -13 -23 -14 -14 -1 -20 3 -16 13 4 10
9 11 18 3 9 -8 15 -8 18 0z m437 -5 c0 -8 -7 -15 -16 -15 -14 0 -14 3 -4 15 7
8 14 15 16 15 2 0 4 -7 4 -15z m-383 -35 c-9 -14 -17 -17 -22 -11 -3 6 -1 11
4 11 6 0 11 5 11 11 0 6 -7 8 -16 5 -9 -3 -12 -2 -9 5 4 6 13 8 21 5 8 -3 14
0 15 7 0 9 2 9 6 0 2 -7 -2 -22 -10 -33z m341 23 c-4 -23 -23 -43 -40 -43 -9
1 -7 5 5 14 9 7 17 21 17 30 0 9 5 16 10 16 6 0 10 -8 8 -17z"/>
<path d="M4530 5540 c0 -5 5 -10 10 -10 6 0 10 5 10 10 0 6 -4 10 -10 10 -5 0
-10 -4 -10 -10z"/>
<path d="M4980 5550 c0 -22 4 -40 10 -40 6 0 11 -64 13 -157 l3 -158 2 198 c2
169 0 197 -13 197 -11 0 -15 -11 -15 -40z"/>
<path d="M5018 5358 c0 -128 -3 -219 -5 -201 -2 17 -11 34 -19 37 -11 4 -14
-6 -14 -55 l0 -60 193 1 c193 1 194 2 191 23 -1 12 -3 29 -3 37 -1 13 -2 13
-11 0 -8 -13 -10 -13 -10 2 0 9 7 23 15 32 8 8 15 16 15 18 0 2 -48 3 -107 2
-101 -1 -110 1 -140 25 -31 24 -35 41 -10 41 8 0 8 -3 -1 -9 -11 -7 -11 -9 2
-14 14 -6 16 13 16 173 l0 180 -55 0 -55 0 -2 -232z m92 208 c0 -3 -4 -8 -10
-11 -5 -3 -10 -1 -10 4 0 6 5 11 10 11 6 0 10 -2 10 -4z m-1 -73 c-2 -31 -3
-33 -6 -10 -2 15 -9 27 -14 27 -5 0 -9 5 -9 10 0 6 7 10 15 10 11 0 15 -10 14
-37z m11 -167 c0 -19 -4 -38 -10 -41 -6 -4 -10 10 -10 34 0 23 5 41 10 41 6 0
10 -15 10 -34z m-123 -188 c-3 -8 -6 -5 -6 6 -1 11 2 17 5 13 3 -3 4 -12 1
-19z m85 0 c-9 -9 -15 -9 -24 0 -9 9 -7 12 12 12 19 0 21 -3 12 -12z m6 -25
c-10 -2 -26 -2 -35 0 -10 3 -2 5 17 5 19 0 27 -2 18 -5z m262 -1 c0 -4 -21 -6
-47 -4 -83 5 -90 9 -20 11 37 0 67 -2 67 -7z m-340 -12 c0 -5 -4 -10 -10 -10
-5 0 -10 5 -10 10 0 6 5 10 10 10 6 0 10 -4 10 -10z"/>
<path d="M5610 5490 c0 -5 5 -10 10 -10 6 0 10 5 10 10 0 6 -4 10 -10 10 -5 0
-10 -4 -10 -10z"/>
<path d="M4984 5370 c0 -52 1 -74 3 -47 2 26 2 68 0 95 -2 26 -3 4 -3 -48z"/>
<path d="M6828 5413 c7 -3 16 -2 19 1 4 3 -2 6 -13 5 -11 0 -14 -3 -6 -6z"/>
<path d="M4981 5234 c0 -11 3 -14 6 -6 3 7 2 16 -1 19 -3 4 -6 -2 -5 -13z"/>
<path d="M5816 5198 c-3 -13 -1 -25 4 -26 6 -2 7 -9 4 -14 -4 -6 -3 -8 3 -5 8
5 6 67 -2 67 -1 0 -5 -10 -9 -22z"/>
</g>
</svg>
